<?xml version="1.0" standalone="no"?>
<!DOCTYPE svg PUBLIC "-//W3C//DTD SVG 20010904//EN"
 "http://www.w3.org/TR/2001/REC-SVG-20010904/DTD/svg10.dtd">
<svg version="1.0" xmlns="http://www.w3.org/2000/svg"
 width="1005.000000pt" height="734.000000pt" viewBox="0 0 1005.000000 734.000000"
 preserveAspectRatio="xMidYMid meet">

<g transform="translate(0.000000,734.000000) scale(0.100000,-0.100000)"
fill="#000000" stroke="none">
<path d="M4546 7050 c-18 -22 -27 -48 -32 -90 -8 -70 -21 -78 -30 -18 -9 52
-34 78 -77 78 -61 0 -83 -45 -61 -126 8 -31 13 -58 11 -60 -2 -2 -17 20 -33
49 -16 28 -41 58 -55 66 -37 21 -78 7 -92 -30 -8 -20 -16 -27 -27 -23 -36 15
-47 14 -73 -6 -20 -16 -27 -30 -27 -58 0 -28 -3 -33 -12 -24 -20 20 -67 14
-93 -13 -14 -13 -25 -28 -25 -34 0 -5 -16 -9 -35 -8 -41 1 -75 -26 -75 -59 0
-21 -2 -23 -25 -12 -29 13 -69 -8 -87 -48 -8 -17 -19 -24 -38 -24 -49 0 -75
-51 -56 -109 8 -23 8 -23 -15 -7 -31 21 -51 20 -83 -5 -28 -22 -34 -56 -16
-90 10 -17 7 -19 -25 -19 -66 0 -99 -66 -54 -111 17 -17 19 -23 8 -30 -8 -5
-17 -9 -21 -9 -3 0 -11 -14 -17 -32 -10 -28 -9 -36 8 -59 13 -17 16 -30 10
-40 -32 -51 12 -105 79 -97 l37 5 3 -61 c6 -141 47 -288 123 -439 53 -104 58
-118 42 -124 -28 -10 -63 -45 -63 -64 0 -31 27 -42 84 -35 50 5 55 4 70 -19
17 -25 16 -27 -22 -71 -55 -61 -80 -154 -64 -230 31 -152 124 -232 279 -242
l71 -5 12 -46 c27 -108 134 -268 216 -322 35 -23 48 -24 68 -3 22 21 9 43 -65
112 -60 55 -130 151 -170 234 -22 45 -22 48 -5 67 10 11 16 28 14 38 -3 16
-13 18 -96 14 -78 -2 -98 0 -136 18 -63 31 -97 85 -103 163 -8 102 38 181 132
224 78 37 118 31 178 -25 28 -25 29 -26 43 -6 15 21 34 79 34 108 0 11 8 17
24 17 13 0 38 3 55 6 24 5 31 3 31 -9 0 -22 39 -57 65 -57 37 0 66 -31 100
-106 41 -90 112 -164 193 -202 50 -24 69 -27 162 -27 88 0 113 4 155 23 116
54 195 183 195 321 0 38 3 43 35 57 37 15 74 18 123 8 29 -6 30 -8 34 -73 4
-52 1 -69 -11 -78 -14 -12 -13 -15 11 -33 40 -31 71 -86 64 -115 -16 -65 -77
-73 -156 -20 -29 19 -56 35 -61 35 -15 0 -40 -47 -33 -63 10 -27 122 -77 172
-77 53 0 102 27 122 67 8 15 15 29 16 31 1 2 24 -8 50 -22 65 -34 179 -52 234
-38 l41 10 -5 -36 c-3 -21 -11 -74 -17 -119 -6 -46 -13 -83 -16 -83 -3 0 -23
15 -44 34 -50 42 -172 105 -220 112 -25 4 -40 1 -52 -10 -30 -30 -7 -58 74
-92 97 -41 229 -103 229 -109 0 -3 -11 -34 -24 -69 -70 -185 -232 -339 -421
-399 -102 -32 -280 -31 -385 2 -80 25 -160 62 -199 92 -32 25 -66 24 -85 -3
-27 -38 -19 -55 42 -96 136 -91 311 -138 468 -128 l92 6 6 -33 c14 -72 82
-143 189 -195 l37 -18 -51 -86 c-114 -192 -327 -433 -512 -580 l-87 -70 -102
74 c-352 252 -619 494 -771 698 l-26 35 56 2 c126 4 256 104 373 284 62 95 69
123 38 143 -27 17 -45 0 -119 -108 -86 -125 -137 -185 -188 -220 l-42 -29 -42
21 -42 20 -135 -28 c-259 -54 -403 -97 -564 -168 -207 -90 -383 -221 -492
-366 -47 -61 -124 -207 -124 -234 0 -10 -7 -12 -22 -8 -40 11 -199 35 -308 46
-153 16 -263 38 -366 72 -60 20 -100 29 -118 24 -34 -8 -60 -50 -59 -92 1 -19
0 -34 -1 -34 -2 0 -32 34 -67 76 -35 41 -78 84 -95 95 -39 23 -87 25 -109 2
-26 -25 -15 -95 22 -141 28 -35 29 -39 15 -60 -14 -21 -14 -29 1 -76 21 -67
96 -167 172 -229 105 -86 160 -112 476 -222 36 -13 103 -30 150 -40 118 -23
111 -18 95 -63 -32 -90 -86 -458 -86 -585 0 -52 18 -88 51 -99 8 -3 7 -23 -5
-78 -31 -149 -46 -342 -49 -620 -1 -229 1 -290 16 -365 50 -251 128 -369 277
-418 131 -43 169 -51 257 -51 78 0 92 -3 96 -17 3 -10 20 -26 38 -36 30 -16
57 -18 249 -16 118 1 359 7 535 12 566 19 1804 11 2232 -13 l82 -5 10 35 c6
23 6 79 -1 162 -12 149 -5 438 16 675 l16 168 176 282 c97 155 187 296 200
314 13 17 24 36 24 42 0 5 6 14 13 18 7 4 23 28 36 53 13 25 101 162 196 306
l172 260 -5 52 c-4 43 0 58 22 96 32 55 81 90 217 154 70 33 122 67 159 101
57 53 104 68 117 35 9 -24 -15 -92 -53 -151 -19 -29 -34 -58 -34 -63 0 -9 -23
-7 -87 6 -40 8 -25 -6 32 -31 33 -15 94 -30 150 -37 176 -21 357 17 529 112
138 77 160 76 86 -4 -48 -52 -135 -100 -210 -115 -61 -13 -99 -31 -65 -31 11
0 70 4 130 9 111 10 243 47 297 85 26 18 42 21 33 6 -9 -14 -100 -80 -155
-112 -25 -15 -53 -35 -62 -46 -10 -13 -35 -23 -65 -28 -92 -13 -80 -23 27 -23
65 0 137 6 188 18 45 10 82 16 82 14 0 -10 -113 -55 -182 -72 -41 -11 -160
-31 -264 -46 -357 -50 -493 -102 -622 -239 -141 -149 -256 -398 -484 -1051
-125 -357 -224 -574 -352 -765 -42 -63 -76 -122 -76 -132 0 -30 28 -33 57 -7
66 62 252 376 328 554 65 155 130 320 160 407 109 327 164 465 260 663 164
338 278 415 713 480 277 42 370 68 483 135 81 48 129 100 129 139 0 51 -21 57
-101 27 -38 -14 -73 -26 -76 -26 -4 0 29 35 72 78 89 89 110 116 101 137 -12
32 -71 16 -210 -55 l-136 -70 35 46 c75 98 82 141 22 130 -17 -3 -90 -35 -162
-71 -137 -69 -193 -87 -328 -105 -99 -14 -237 -5 -237 15 0 8 5 17 10 20 19
12 70 125 76 169 8 54 -18 86 -69 86 -37 0 -62 -15 -127 -75 -26 -24 -97 -66
-171 -102 -100 -49 -135 -71 -167 -109 -45 -51 -65 -105 -60 -163 3 -33 -15
-63 -162 -288 -91 -139 -168 -252 -171 -253 -3 0 -9 52 -13 116 -8 156 -39
369 -71 494 -99 390 -310 822 -495 1010 -123 125 -221 172 -370 176 -155 5
-296 69 -338 155 l-22 43 38 12 c142 43 298 154 387 274 99 135 144 282 165
539 6 72 14 119 23 130 43 49 65 142 77 321 8 127 7 146 -7 162 -9 10 -26 18
-37 18 -49 0 -65 12 -71 49 -30 187 -113 407 -203 539 -59 87 -59 91 -1 36 30
-29 64 -57 76 -63 50 -25 93 -2 93 50 0 55 -39 105 -125 163 -22 14 -37 26
-34 26 12 0 115 -39 144 -54 62 -33 125 -11 125 45 -1 33 -26 63 -80 94 l-45
25 42 -6 c56 -9 89 1 109 31 21 32 12 69 -22 92 -14 9 -81 27 -147 39 -67 12
-115 23 -106 23 36 2 59 53 43 96 -9 23 -58 45 -101 45 -39 0 -205 -25 -239
-36 -15 -4 -16 -4 -4 4 8 5 44 17 80 26 35 9 75 26 87 38 46 43 17 108 -47
108 -14 0 -60 -15 -102 -34 l-78 -34 20 28 c27 38 26 81 -3 108 -37 35 -63 28
-130 -35 -39 -37 -53 -47 -40 -28 31 46 36 71 19 103 -32 62 -97 49 -145 -27
-17 -28 -36 -51 -42 -51 -6 0 -1 12 10 26 12 15 21 38 21 51 0 33 -42 73 -77
73 -44 0 -70 -25 -94 -91 -21 -56 -34 -77 -45 -67 -2 3 3 21 11 41 21 51 19
74 -10 102 -33 34 -77 33 -104 -1 -12 -15 -21 -36 -22 -48 -1 -15 -4 -12 -10
11 -19 65 -81 82 -123 33z m894 -515 c32 -16 38 -30 18 -38 -17 -5 -70 32 -63
44 8 12 11 12 45 -6z m-1583 -100 c25 -17 31 -35 11 -35 -24 1 -98 39 -98 51
0 15 55 5 87 -16z m1351 -40 c40 -16 58 -45 28 -45 -20 0 -106 40 -106 49 0
13 13 22 24 17 6 -2 30 -12 54 -21z m-137 -198 c25 -34 58 -83 73 -110 47 -79
103 -108 140 -71 33 32 12 106 -48 173 l-21 24 22 -12 c12 -6 50 -35 84 -64
124 -105 150 -116 190 -76 40 40 14 90 -86 167 l-30 23 45 -6 c55 -7 76 -26
149 -135 94 -141 177 -356 196 -513 l7 -52 -112 3 c-61 2 -135 -2 -163 -8 -34
-7 -54 -7 -61 0 -16 16 -46 12 -46 -7 0 -13 -23 -27 -83 -51 -70 -28 -92 -33
-152 -30 -70 3 -70 3 -73 33 -8 66 -59 82 -135 43 -38 -20 -57 -22 -212 -22
-167 -1 -172 -2 -260 -34 -49 -18 -113 -39 -142 -45 -28 -7 -55 -16 -59 -20
-4 -4 -38 -7 -76 -7 l-68 0 0 39 c0 22 9 55 20 74 58 98 86 252 68 379 -7 46
-12 105 -12 133 -1 47 1 50 39 72 110 63 523 155 720 161 38 1 42 -2 86 -61z
m-1268 -8 c-4 -4 -32 -11 -60 -15 -44 -5 -53 -4 -53 9 0 19 88 38 108 24 7 -6
9 -14 5 -18z m217 -23 c0 -22 -34 -76 -47 -76 -20 0 -15 34 8 64 23 29 39 34
39 12z m1780 -743 c0 -20 -3 -24 -11 -16 -7 7 -9 19 -6 27 10 24 17 19 17 -11z
m-800 -52 c14 -28 12 -41 -7 -41 -17 0 -53 27 -53 41 0 6 17 14 42 18 4 0 12
-8 18 -18z m-3352 -2118 c101 -101 186 -160 250 -173 20 -4 66 -16 102 -25 66
-19 154 -24 167 -12 13 13 -16 30 -65 38 -87 13 -211 51 -244 73 -17 11 -40
33 -51 48 -17 23 -19 32 -9 53 15 32 22 31 132 -6 87 -29 155 -40 493 -84 211
-27 321 -65 436 -150 33 -24 77 -68 99 -97 35 -47 40 -61 46 -128 3 -41 24
-169 46 -285 123 -637 142 -757 161 -1010 31 -423 -59 -885 -203 -1041 -41
-44 -106 -74 -162 -74 -42 0 -211 46 -264 72 -83 39 -149 155 -187 323 -9 41
-18 144 -22 246 -8 257 8 339 151 777 90 275 124 433 128 588 2 92 -1 116 -15
138 -21 31 -74 66 -101 66 -31 0 -315 80 -387 110 -38 15 -91 42 -119 60 -61
39 -144 128 -159 171 l-11 32 33 -6 c18 -3 73 -30 123 -60 54 -33 121 -64 165
-77 41 -11 95 -27 121 -34 48 -14 58 -12 58 10 0 20 -45 40 -140 63 -62 16
-107 35 -167 73 -45 29 -81 54 -79 55 2 2 31 -3 66 -11 77 -18 68 -9 -30 32
-201 83 -251 106 -322 147 -43 25 -84 45 -92 45 -29 0 -103 109 -92 136 13 33
50 12 144 -83z m20 -135 c42 -23 105 -54 140 -69 l64 -27 -28 -13 c-52 -25
-41 -85 33 -176 41 -51 28 -53 -51 -9 -146 83 -296 259 -272 321 9 24 33 18
114 -27z m4792 -1241 c0 -1 -70 -119 -155 -261 -85 -143 -155 -255 -155 -250
0 5 9 88 20 184 11 96 20 192 20 212 0 34 4 39 37 53 51 21 233 70 233 62z
m-3973 -32 c1 0 -25 -79 -57 -175 -46 -136 -59 -164 -55 -125 32 348 27 325
73 312 20 -6 38 -11 39 -12z"/>
<path d="M2570 2937 c-25 -7 -54 -19 -65 -26 -19 -12 -18 -12 5 -6 98 24 221
13 286 -26 53 -32 97 -22 57 13 -53 45 -200 69 -283 45z"/>
<path d="M3961 5034 c30 -19 65 -51 78 -70 26 -38 63 -44 69 -11 8 41 -102
117 -169 117 -31 0 -31 0 22 -36z"/>
<path d="M5145 4839 c-155 -52 -365 -178 -323 -194 9 -4 25 -2 37 4 31 17 32
14 6 -31 -43 -75 -25 -158 46 -207 32 -22 39 -23 134 -15 55 4 163 8 240 8
146 1 175 8 195 46 13 25 5 28 -70 32 l-55 3 0 135 0 135 38 0 c20 0 37 1 37
3 0 11 -77 32 -115 32 -41 0 -45 2 -45 25 0 18 -7 28 -26 35 -32 13 -28 13
-99 -11z m137 -137 l-4 -39 -111 -12 c-62 -7 -130 -15 -152 -18 l-40 -5 25 18
c28 21 233 93 265 94 18 0 20 -5 17 -38z m-12 -155 c0 -36 -24 -46 -125 -52
l-100 -6 100 35 c114 39 125 41 125 23z"/>
</g>
</svg>
